<svg width="169" height="101" viewBox="0 0 169 101" fill="none" xmlns="http://www.w3.org/2000/svg">
<g filter="url(#filter0_d_4_56)">
<mask id="path-1-outside-1_4_56" maskUnits="userSpaceOnUse" x="3" y="-1" width="163" height="95" fill="black">
<rect fill="white" x="3" y="-1" width="163" height="95"/>
<path d="M100 0.231993L95.968 18.088C99.04 19.624 102.304 22.984 105.76 28.168C109.024 33.352 110.944 39.016 111.52 45.16L91.936 48.328V92.392H164.8V65.608C164.8 47.944 159.712 33.256 149.536 21.544C139.168 9.832 122.656 2.72799 100 0.231993ZM12.736 0.231993L8.70399 18.088C11.776 19.624 15.04 22.984 18.496 28.168C21.76 33.352 23.68 39.016 24.256 45.16L4.67199 48.328V92.392H77.536V65.608C77.536 47.944 72.448 33.256 62.272 21.544C51.904 9.832 35.392 2.72799 12.736 0.231993Z"/>
</mask>
<path d="M100 0.231993L99.0246 0.0117318L99.2214 -0.859839L100.11 -0.761993L100 0.231993ZM95.968 18.088L95.5208 18.9824L94.82 18.632L94.9926 17.8677L95.968 18.088ZM105.76 28.168L106.592 27.6133L106.599 27.6241L106.606 27.6352L105.76 28.168ZM111.52 45.16L112.516 45.0667L112.603 45.9978L111.68 46.1472L111.52 45.16ZM91.936 48.328H90.936V47.4768L91.7763 47.3408L91.936 48.328ZM91.936 92.392V93.392H90.936V92.392H91.936ZM164.8 92.392H165.8V93.392H164.8V92.392ZM149.536 21.544L150.285 20.8811L150.291 20.8881L149.536 21.544ZM12.736 0.231993L11.7605 0.0117318L11.9574 -0.859839L12.8455 -0.761993L12.736 0.231993ZM8.70399 18.088L8.25678 18.9824L7.55597 18.632L7.72855 17.8677L8.70399 18.088ZM18.496 28.168L19.328 27.6133L19.3353 27.6241L19.3422 27.6352L18.496 28.168ZM24.256 45.16L25.2516 45.0667L25.3389 45.9978L24.4157 46.1472L24.256 45.16ZM4.67199 48.328H3.67199V47.4768L4.5123 47.3408L4.67199 48.328ZM4.67199 92.392V93.392H3.67199V92.392H4.67199ZM77.536 92.392H78.536V93.392H77.536V92.392ZM62.272 21.544L63.0208 20.8811L63.0269 20.8881L62.272 21.544ZM100.975 0.452254L96.9434 18.3082L94.9926 17.8677L99.0246 0.0117318L100.975 0.452254ZM96.4152 17.1936C99.7237 18.8478 103.107 22.3851 106.592 27.6133L104.928 28.7227C101.501 23.5829 98.3563 20.4002 95.5208 18.9824L96.4152 17.1936ZM106.606 27.6352C109.954 32.9529 111.925 38.7677 112.516 45.0667L110.524 45.2533C109.963 39.2643 108.094 33.7511 104.914 28.7008L106.606 27.6352ZM111.68 46.1472L92.0957 49.3152L91.7763 47.3408L111.36 44.1728L111.68 46.1472ZM92.936 48.328V92.392H90.936V48.328H92.936ZM91.936 91.392H164.8V93.392H91.936V91.392ZM163.8 92.392V65.608H165.8V92.392H163.8ZM163.8 65.608C163.8 48.1495 158.777 33.7048 148.781 22.1999L150.291 20.8881C160.647 32.8072 165.8 47.7385 165.8 65.608H163.8ZM148.787 22.2068C138.645 10.7503 122.411 3.70704 99.8905 1.22598L100.11 -0.761993C122.901 1.74895 139.691 8.91373 150.285 20.8812L148.787 22.2068ZM13.7114 0.452254L9.67943 18.3082L7.72855 17.8677L11.7605 0.0117318L13.7114 0.452254ZM9.1512 17.1936C12.4597 18.8478 15.8426 22.3851 19.328 27.6133L17.6639 28.7227C14.2374 23.5829 11.0923 20.4002 8.25678 18.9824L9.1512 17.1936ZM19.3422 27.6352C22.6904 32.9529 24.6611 38.7677 25.2516 45.0667L23.2604 45.2533C22.6989 39.2643 20.8295 33.7511 17.6498 28.7008L19.3422 27.6352ZM24.4157 46.1472L4.83168 49.3152L4.5123 47.3408L24.0963 44.1728L24.4157 46.1472ZM5.67199 48.328V92.392H3.67199V48.328H5.67199ZM4.67199 91.392H77.536V93.392H4.67199V91.392ZM76.536 92.392V65.608H78.536V92.392H76.536ZM76.536 65.608C76.536 48.1495 71.5132 33.7048 61.5171 22.1999L63.0269 20.8881C73.3828 32.8072 78.536 47.7385 78.536 65.608H76.536ZM61.5232 22.2068C51.3813 10.7503 35.1468 3.70704 12.6265 1.22598L12.8455 -0.761993C35.6371 1.74895 52.4266 8.91373 63.0208 20.8812L61.5232 22.2068Z" fill="#FF9142" mask="url(#path-1-outside-1_4_56)"/>
</g>
<defs>
<filter id="filter0_d_4_56" x="0.671978" y="0.231995" width="168.128" height="100.16" filterUnits="userSpaceOnUse" color-interpolation-filters="sRGB">
<feFlood flood-opacity="0" result="BackgroundImageFix"/>
<feColorMatrix in="SourceAlpha" type="matrix" values="0 0 0 0 0 0 0 0 0 0 0 0 0 0 0 0 0 0 127 0" result="hardAlpha"/>
<feOffset dy="4"/>
<feGaussianBlur stdDeviation="2"/>
<feComposite in2="hardAlpha" operator="out"/>
<feColorMatrix type="matrix" values="0 0 0 0 0 0 0 0 0 0 0 0 0 0 0 0 0 0 0.25 0"/>
<feBlend mode="normal" in2="BackgroundImageFix" result="effect1_dropShadow_4_56"/>
<feBlend mode="normal" in="SourceGraphic" in2="effect1_dropShadow_4_56" result="shape"/>
</filter>
</defs>
</svg>
